<?xml version="1.0" encoding="UTF-8" standalone="no"?>
<svg xmlns="http://www.w3.org/2000/svg" viewBox="0 0 24 24"><title>Hand Open</title><g id="Hand_Open" data-name="Hand Open"><line x1="18.5" y1="11" x2="18.5" y2="11" style="fill:none;stroke:#303c42;stroke-linecap:round;stroke-linejoin:round"/><line x1="18.5" y1="11" x2="18.5" y2="11" style="fill:none;stroke:#303c42;stroke-linecap:round;stroke-linejoin:round"/><path d="M15.5,3A1.5,1.5,0,0,1,17,1.5h0A1.5,1.5,0,0,1,18.5,3v8" style="fill:none;stroke:#303c42;stroke-linecap:round;stroke-linejoin:round"/><path d="M12.5,9.5V2A1.5,1.5,0,0,1,14,.5h0A1.5,1.5,0,0,1,15.5,2V9.5" style="fill:none;stroke:#303c42;stroke-linecap:round;stroke-linejoin:round"/><path d="M18.5,6A1.5,1.5,0,0,1,20,4.5h0A1.5,1.5,0,0,1,21.5,6V17.5a6,6,0,0,1-6,6H12.36a6,6,0,0,1-4.09-1.61L2.5,16.5v-.38A1.62,1.62,0,0,1,4.12,14.5h0a1.62,1.62,0,0,1,.72.17l3.21,1.61a1,1,0,0,0,1.45-.89V3A1.5,1.5,0,0,1,11,1.5h0A1.5,1.5,0,0,1,12.5,3" style="fill:none;stroke:#303c42;stroke-linecap:round;stroke-linejoin:round"/></g>
	<metadata>
		<rdf:RDF xmlns:rdf="http://www.w3.org/1999/02/22-rdf-syntax-ns#" xmlns:rdfs="http://www.w3.org/2000/01/rdf-schema#" xmlns:dc="http://purl.org/dc/elements/1.1/">
			<rdf:Description about="https://iconscout.com/legal#licenses" dc:title="hand; grab; hold; mouse; cirsor; open;" dc:description="hand; grab; hold; mouse; cirsor; open;" dc:publisher="Iconscout" dc:date="2017-02-16" dc:format="image/svg+xml" dc:language="en">
				<dc:creator>
					<rdf:Bag>
						<rdf:li>Alpár - Etele Méder</rdf:li>
					</rdf:Bag>
				</dc:creator>
			</rdf:Description>
		</rdf:RDF>
    </metadata></svg>
