<?xml version="1.0" encoding="UTF-8"?><svg xmlns="http://www.w3.org/2000/svg" xmlns:xlink="http://www.w3.org/1999/xlink" version="1.1" id="Layer_1" x="0px" y="0px" viewBox="0 0 24 24" xml:space="preserve"><g fill="none" stroke="#303C42" stroke-linecap="round" stroke-linejoin="round" stroke-miterlimit="10"><path d="M23.5 20.5c-2 0-2-1-4-1s-2 1-4 1v-16h8v16z"/><path d="M3.412 5.5l1.183-1.219C5.08 3.781 5.814 3.5 6.5 3.5a4.93 4.93 0 0 1 4 2.05"/><path d="M5.353 5.5H2.118c-.536 0-.97.448-.97 1s.434 1 .97 1H2.5 1.47c-.535 0-.97.448-.97 1s.435 1 .97 1H2.5h-.382c-.536 0-.97.448-.97 1s.434 1 .97 1H3.5h-.412c-.536 0-.97.448-.97 1s.434 1 .97 1H7.5a4.054 4.054 0 0 0 3-1.36"/><path d="M15.5 13.5h-4a1 1 0 0 1-1-1v-7a1 1 0 0 1 1-1h4"/><circle cx="13" cy="11" r="0.5"/></g><metadata><rdf:RDF xmlns:rdf="http://www.w3.org/1999/02/22-rdf-syntax-ns#" xmlns:rdfs="http://www.w3.org/2000/01/rdf-schema#" xmlns:dc="http://purl.org/dc/elements/1.1/"><rdf:Description about="https://iconscout.com/legal#licenses" dc:title="waiter,restaurant,dinner,order,service" dc:description="waiter,restaurant,dinner,order,service" dc:publisher="Iconscout" dc:date="2017-08-16" dc:format="image/svg+xml" dc:language="en"><dc:creator><rdf:Bag><rdf:li>Those Icons</rdf:li></rdf:Bag></dc:creator></rdf:Description></rdf:RDF></metadata></svg>